<svg width="26" height="26" viewBox="0 0 26 26" fill="none" xmlns="http://www.w3.org/2000/svg">
<path d="M12.9989 23.8334C7.64366 23.7627 3.31951 19.4386 3.24893 14.0834C3.31951 8.72809 7.64366 4.40394 12.9989 4.33335C18.3542 4.40394 22.6784 8.72809 22.7489 14.0834C22.6784 19.4386 18.3542 23.7627 12.9989 23.8334ZM12.9989 6.50002C8.83369 6.55486 5.47043 9.91812 5.4156 14.0834C5.47043 18.2486 8.83369 21.6119 12.9989 21.6667C17.1641 21.6119 20.5274 18.2486 20.5822 14.0834C20.5274 9.91812 17.1641 6.55486 12.9989 6.50002ZM18.4156 15.1667H11.9156V8.66668H14.0822V13H18.4156V15.1667ZM21.9819 7.26702L18.7222 4.01702L20.2486 2.48193L23.5094 5.73193L21.9819 7.26593V7.26702ZM4.01485 7.26702L2.48193 5.73193L5.72218 2.48193L7.2551 4.01702L4.01702 7.26702H4.01485Z" fill="#EC1654"/>
</svg>
